<svg xmlns="http://www.w3.org/2000/svg" width="190" height="73" fill="none" viewBox="0 0 190 73">
  <g clip-path="url(#a)">
    <path fill="#fff" d="M0 0h190v73H0z"/>
    <path fill="#000" d="M13.352 46.18c-.888 0-1.524-.192-1.908-.576-.384-.408-.576-1.164-.576-2.268 0-.744.072-1.644.216-2.7.144-1.056.396-2.652.756-4.788l.576-3.492c.336-2.064.636-4.224.9-6.48.24-1.92.36-3.36.36-4.32 0-1.08-.396-1.62-1.188-1.62-.6 0-1.356.324-2.268.972-.888.624-1.848 1.632-2.88 3.024-.336.456-.708.684-1.116.684-.336 0-.636-.156-.9-.468a1.877 1.877 0 0 1-.36-1.116c0-.408.072-.792.216-1.152.144-.384.408-.84.792-1.368 1.176-1.608 2.484-2.844 3.924-3.708 1.44-.888 2.952-1.332 4.536-1.332 1.32 0 2.304.408 2.952 1.224.672.816 1.008 2.004 1.008 3.564 0 1.392-.192 3.408-.576 6.048 1.2-3.552 2.724-6.24 4.572-8.064 1.848-1.848 4.02-2.772 6.516-2.772 1.968 0 3.444.564 4.428 1.692 1.008 1.104 1.512 2.592 1.512 4.464 0 1.056-.156 2.34-.468 3.852L32.18 35.776c-.24 1.2-.36 2.232-.36 3.096 0 1.008.228 1.764.684 2.268.48.504 1.14.756 1.98.756.792 0 1.56-.264 2.304-.792.768-.528 1.668-1.404 2.7-2.628.288-.336.612-.504.972-.504.312 0 .552.144.72.432.192.288.288.684.288 1.188 0 .936-.228 1.68-.684 2.232-1.248 1.512-2.484 2.616-3.708 3.312-1.224.696-2.508 1.044-3.852 1.044-2.04 0-3.636-.6-4.788-1.8-1.152-1.224-1.728-2.856-1.728-4.896 0-.792.06-1.656.18-2.592.144-.936.372-2.124.684-3.564l1.44-6.588.252-1.152c.12-.552.216-1.068.288-1.548.072-.504.108-.996.108-1.476 0-.768-.216-1.38-.648-1.836-.432-.456-1.044-.684-1.836-.684-1.44 0-2.88.768-4.32 2.304-1.44 1.536-2.772 4.02-3.996 7.452-1.224 3.408-2.184 7.776-2.88 13.104-.168 1.224-.42 2.076-.756 2.556-.312.48-.936.72-1.872.72Zm43.552-11.232c.312 0 .552.156.72.468.168.312.252.708.252 1.188 0 1.152-.348 1.836-1.044 2.052-1.44.504-3.024.792-4.752.864-.456 2.016-1.356 3.636-2.7 4.86-1.344 1.2-2.868 1.8-4.572 1.8-1.44 0-2.676-.348-3.708-1.044-1.008-.696-1.776-1.62-2.304-2.772-.528-1.152-.792-2.4-.792-3.744 0-1.824.348-3.444 1.044-4.86.696-1.44 1.656-2.556 2.88-3.348a7.176 7.176 0 0 1 4.068-1.224c1.824 0 3.288.636 4.392 1.908 1.128 1.248 1.788 2.796 1.98 4.644 1.128-.072 2.472-.312 4.032-.72.192-.048.36-.072.504-.072Zm-11.808 7.416c.768 0 1.428-.312 1.98-.936.576-.624.96-1.524 1.152-2.7a5.109 5.109 0 0 1-1.728-1.98 6.013 6.013 0 0 1-.576-2.592c0-.384.036-.768.108-1.152h-.18c-.96 0-1.764.468-2.412 1.404-.624.912-.936 2.208-.936 3.888 0 1.32.252 2.328.756 3.024.528.696 1.14 1.044 1.836 1.044Zm26.66-4.392c.313 0 .553.144.72.432.193.288.289.684.289 1.188 0 .96-.228 1.704-.684 2.232-1.032 1.272-2.16 2.316-3.384 3.132-1.224.816-2.628 1.224-4.212 1.224-4.896 0-7.344-3.444-7.344-10.332 0-1.056.036-2.124.108-3.204h-1.404c-.72 0-1.212-.132-1.476-.396-.24-.264-.36-.684-.36-1.26 0-1.344.54-2.016 1.62-2.016h2.052c.408-2.64 1.032-5.052 1.872-7.236.84-2.184 1.848-3.924 3.024-5.22 1.2-1.296 2.484-1.944 3.852-1.944 1.008 0 1.8.444 2.376 1.332.576.888.864 2.004.864 3.348 0 3.72-1.56 6.96-4.68 9.72h4.032c.384 0 .66.084.828.252.168.168.252.48.252.936 0 1.656-1.356 2.484-4.068 2.484H61.64a74.826 74.826 0 0 0-.072 2.808c0 2.496.288 4.248.864 5.256.6 1.008 1.536 1.512 2.808 1.512 1.032 0 1.944-.312 2.736-.936.792-.624 1.728-1.56 2.808-2.808.288-.336.612-.504.972-.504Zm-6.3-19.944c-.36 0-.767.456-1.223 1.368-.432.888-.852 2.136-1.26 3.744A52.636 52.636 0 0 0 62 28.432c1.416-1.224 2.472-2.592 3.168-4.104.72-1.536 1.08-2.928 1.08-4.176 0-1.416-.264-2.124-.792-2.124ZM85.89 37.972c.313 0 .553.144.72.432.193.288.288.684.288 1.188 0 .96-.228 1.704-.684 2.232-.887 1.08-2.147 2.076-3.78 2.988a10.337 10.337 0 0 1-5.184 1.368c-2.52 0-4.475-.684-5.867-2.052-1.392-1.368-2.089-3.24-2.089-5.616 0-1.656.348-3.192 1.044-4.608.697-1.44 1.656-2.58 2.88-3.42 1.249-.84 2.653-1.26 4.213-1.26 1.391 0 2.507.42 3.347 1.26.84.816 1.26 1.932 1.26 3.348 0 1.656-.6 3.084-1.8 4.284-1.175 1.176-3.18 2.112-6.011 2.808.6 1.104 1.74 1.656 3.42 1.656 1.08 0 2.303-.372 3.671-1.116a12.35 12.35 0 0 0 3.6-2.988c.288-.336.612-.504.972-.504Zm-9.072-5.22c-.887 0-1.643.516-2.267 1.548-.6 1.032-.9 2.28-.9 3.744v.072c1.415-.336 2.531-.84 3.347-1.512.817-.672 1.225-1.452 1.225-2.34 0-.456-.132-.816-.396-1.08-.24-.288-.576-.432-1.008-.432Zm36.525-2.304c.552 0 .948.12 1.188.36.264.24.396.552.396.936 0 .624-.192 1.176-.576 1.656-.36.48-.936.732-1.728.756-1.92.048-3.624-.096-5.112-.432-1.704 3.576-3.768 6.552-6.192 8.928-2.4 2.352-4.812 3.528-7.236 3.528-2.496 0-4.356-1.452-5.58-4.356-1.224-2.904-1.836-6.828-1.836-11.772 0-4.224.3-8.016.9-11.376.216-1.248.516-2.088.9-2.52.408-.456 1.092-.684 2.052-.684 1.584 0 2.376.684 2.376 2.052 0 .144-.024.408-.072.792-.72 4.32-1.08 8.232-1.08 11.736 0 3.672.3 6.468.9 8.388.624 1.896 1.548 2.844 2.772 2.844 1.248 0 2.604-.864 4.068-2.592 1.464-1.728 2.808-3.9 4.032-6.516-1.464-.912-2.568-2.088-3.312-3.528-.744-1.464-1.116-3.144-1.116-5.04s.288-3.492.864-4.788c.6-1.32 1.404-2.304 2.412-2.952a6.303 6.303 0 0 1 3.42-.972c1.536 0 2.748.552 3.636 1.656.912 1.104 1.368 2.616 1.368 4.536 0 2.76-.6 5.772-1.8 9.036 1.272.216 2.724.324 4.356.324Zm-10.62-7.092c0 2.352.756 4.092 2.268 5.22.936-2.688 1.404-4.908 1.404-6.66 0-1.008-.132-1.74-.396-2.196-.264-.48-.624-.72-1.08-.72-.648 0-1.176.384-1.584 1.152-.408.744-.612 1.812-.612 3.204Zm24.757 14.616c.312 0 .552.144.72.432.192.288.288.684.288 1.188 0 .96-.228 1.704-.684 2.232-.888 1.08-2.148 2.076-3.78 2.988a10.337 10.337 0 0 1-5.184 1.368c-2.52 0-4.476-.684-5.868-2.052-1.392-1.368-2.088-3.24-2.088-5.616 0-1.656.348-3.192 1.044-4.608.696-1.44 1.656-2.58 2.88-3.42 1.248-.84 2.652-1.26 4.212-1.26 1.392 0 2.508.42 3.348 1.26.84.816 1.26 1.932 1.26 3.348 0 1.656-.6 3.084-1.8 4.284-1.176 1.176-3.18 2.112-6.012 2.808.6 1.104 1.74 1.656 3.42 1.656 1.08 0 2.304-.372 3.672-1.116a12.35 12.35 0 0 0 3.6-2.988c.288-.336.612-.504.972-.504Zm-9.072-5.22c-.888 0-1.644.516-2.268 1.548-.6 1.032-.9 2.28-.9 3.744v.072c1.416-.336 2.532-.84 3.348-1.512.816-.672 1.224-1.452 1.224-2.34 0-.456-.132-.816-.396-1.08-.24-.288-.576-.432-1.008-.432Zm21.693 1.404c.528 0 .972.192 1.332.576.384.36.576.816.576 1.368 0 .312-.072.648-.216 1.008a6.09 6.09 0 0 1-1.62 2.232c-.696.6-1.464.9-2.304.9-.672 0-1.248-.24-1.728-.72-.456-.48-.684-1.128-.684-1.944 0-.456.024-.948.072-1.476.048-.384.072-.648.072-.792 0-.192-.048-.336-.144-.432a.342.342 0 0 0-.288-.144c-.336 0-.792.408-1.368 1.224-.576.792-1.152 1.848-1.728 3.168a25.859 25.859 0 0 0-1.404 4.176c-.264 1.152-.564 1.92-.9 2.304-.336.384-.888.576-1.656.576-.912 0-1.56-.48-1.944-1.44-.36-.96-.54-2.496-.54-4.608 0-3.12.444-6.084 1.332-8.892.216-.696.564-1.2 1.044-1.512.504-.336 1.2-.504 2.088-.504.48 0 .816.06 1.008.18.192.12.288.348.288.684 0 .384-.18 1.248-.54 2.592-.24.96-.432 1.8-.576 2.52-.144.72-.264 1.608-.36 2.664.792-2.064 1.68-3.744 2.664-5.04.984-1.296 1.944-2.22 2.88-2.772.936-.552 1.788-.828 2.556-.828.696 0 1.224.204 1.584.612.384.384.576.96.576 1.728 0 .456-.132 1.32-.396 2.592h.324Zm9.062 12.816c-1.248 0-2.208-.288-2.88-.864-.648-.576-.972-1.224-.972-1.944 0-.624.228-1.164.684-1.62.456-.456 1.128-.684 2.016-.684.312 0 .672.036 1.08.108l.972.108a4.44 4.44 0 0 0-.432-1.764 7.63 7.63 0 0 0-.936-1.584 19.577 19.577 0 0 0-1.08-1.368c-.744 1.416-1.488 2.592-2.232 3.528a24.817 24.817 0 0 1-2.376 2.664c-.432.432-.888.648-1.368.648-.384 0-.696-.132-.936-.396a1.577 1.577 0 0 1-.36-1.044c0-.48.168-.924.504-1.332l.468-.576c1.32-1.632 2.316-2.976 2.988-4.032.408-.696.888-1.62 1.44-2.772a103.105 103.105 0 0 0 1.62-3.636c.456-1.056 1.404-1.584 2.844-1.584.672 0 1.14.06 1.404.18s.396.312.396.576c0 .144-.048.372-.144.684a5.203 5.203 0 0 1-.396.936c-.432.864-.648 1.596-.648 2.196 0 .36.12.756.36 1.188.264.432.66.972 1.188 1.62.768 1.008 1.344 1.872 1.728 2.592.408.696.612 1.464.612 2.304 0 .24-.024.576-.072 1.008 1.176-.456 2.556-1.668 4.14-3.636.288-.336.612-.504.972-.504.312 0 .552.144.72.432.192.288.288.684.288 1.188 0 .912-.228 1.656-.684 2.232-1.2 1.488-2.352 2.508-3.456 3.06-1.08.528-2.424.816-4.032.864-.96.816-2.1 1.224-3.42 1.224Zm21.556-7.92c.312 0 .552.144.72.432.192.288.288.684.288 1.188 0 .864-.204 1.608-.612 2.232a6.973 6.973 0 0 1-2.664 2.412c-1.08.576-2.376.864-3.888.864-2.304 0-4.092-.684-5.364-2.052-1.272-1.392-1.908-3.264-1.908-5.616 0-1.656.348-3.192 1.044-4.608.696-1.44 1.656-2.58 2.88-3.42 1.248-.84 2.652-1.26 4.212-1.26 1.392 0 2.508.42 3.348 1.26.84.816 1.26 1.932 1.26 3.348 0 1.656-.6 3.084-1.8 4.284-1.176 1.176-3.192 2.112-6.048 2.808.576 1.104 1.548 1.656 2.916 1.656.984 0 1.788-.228 2.412-.684.648-.456 1.392-1.224 2.232-2.304.288-.36.612-.54.972-.54Zm-5.904-6.3c-.888 0-1.644.516-2.268 1.548-.6 1.032-.9 2.28-.9 3.744v.072c1.416-.336 2.532-.84 3.348-1.512.816-.672 1.224-1.452 1.224-2.34 0-.456-.132-.816-.396-1.08-.24-.288-.576-.432-1.008-.432Z"/>
    <g filter="url(#b)">
      <mask id="c" width="178" height="12" x="41" y="73" fill="#000" maskUnits="userSpaceOnUse">
        <path fill="#fff" d="M41 73h178v12H41z"/>
        <path d="M217 83v-8H43v8h174Z"/>
      </mask>
      <path fill="#fff" d="M217 83v-8H43v8h174Z"/>
      <path fill="#fff" d="M217 75h2v-2h-2v2Zm0 8v2h2v-2h-2ZM43 83h-2v2h2v-2Zm0-8v-2h-2v2h2Zm172 0v8h4v-8h-4Zm2 6H43v4h174v-4ZM45 83v-8h-4v8h4Zm-2-6h174v-4H43v4Z" mask="url(#c)"/>
    </g>
    <path fill="#335CFF" d="M9.25 59.07a3.8 3.8 0 0 1-1.28-.22 3.497 3.497 0 0 1-1.12-.65 3.107 3.107 0 0 1-.78-1.07c-.193-.427-.29-.92-.29-1.48 0-.44.083-.89.25-1.35.167-.467.413-.893.74-1.28.327-.393.737-.71 1.23-.95.493-.247 1.063-.37 1.71-.37.44 0 .867.073 1.28.22.42.147.793.363 1.12.65.327.287.587.647.78 1.08.193.427.29.92.29 1.48 0 .44-.083.893-.25 1.36a4.27 4.27 0 0 1-.74 1.28 3.71 3.71 0 0 1-1.23.94c-.487.24-1.057.36-1.71.36Zm.02-.93c.5 0 .933-.09 1.3-.27a2.69 2.69 0 0 0 .9-.72c.24-.293.417-.613.53-.96.12-.347.18-.683.18-1.01 0-.347-.063-.67-.19-.97a2.41 2.41 0 0 0-.52-.81 2.41 2.41 0 0 0-.8-.56c-.3-.14-.633-.21-1-.21-.5 0-.933.093-1.3.28-.36.18-.66.417-.9.71a3.059 3.059 0 0 0-.52.96c-.113.347-.17.687-.17 1.02 0 .34.06.663.18.97.12.307.29.577.51.81.227.233.49.42.79.56.307.133.643.2 1.01.2Zm6.214-3.28-.07 1.01a2.236 2.236 0 0 1 1.18-1.03 1.74 1.74 0 0 1 .64-.14l-.15.92c-.314-.02-.6.04-.86.18a1.79 1.79 0 0 0-.62.56 1.68 1.68 0 0 0-.29.75l-.24 1.89h-.92l.5-4.14h.83Zm4.233 6.19c-.333 0-.623-.037-.87-.11a2.264 2.264 0 0 1-.67-.3 4.448 4.448 0 0 1-.56-.46l.63-.63c.147.153.297.28.45.38.154.107.32.183.5.23.187.047.387.07.6.07.274 0 .51-.05.71-.15.2-.093.357-.23.47-.41.12-.173.194-.377.22-.61l.14-1.12.07.17c-.14.287-.363.523-.67.71-.3.18-.656.27-1.07.27-.386 0-.733-.083-1.04-.25-.3-.173-.54-.417-.72-.73-.173-.32-.26-.697-.26-1.13 0-.22.044-.46.13-.72a2.56 2.56 0 0 1 .42-.75 2.18 2.18 0 0 1 .73-.58c.3-.153.657-.23 1.07-.23.414 0 .767.08 1.06.24.294.153.497.353.61.6l-.11.19.24-.87h.85l-.54 4.35c-.04.373-.166.697-.38.97a2.062 2.062 0 0 1-.83.64c-.34.153-.733.23-1.18.23Zm.45-5.59c-.293 0-.54.053-.74.16-.2.1-.363.23-.49.39-.12.16-.206.327-.26.5-.053.167-.08.323-.08.47 0 .267.057.503.17.71.114.2.274.357.48.47.207.113.45.17.73.17a1.565 1.565 0 0 0 1.1-.48c.147-.153.26-.327.34-.52l.1-.83a1.103 1.103 0 0 0-.24-.53 1.413 1.413 0 0 0-1.11-.51Zm5.266 3.62c-.306 0-.6-.08-.88-.24a1.933 1.933 0 0 1-.67-.7c-.166-.3-.25-.657-.25-1.07 0-.28.05-.557.15-.83a2.71 2.71 0 0 1 .45-.77c.2-.233.44-.42.72-.56.287-.147.617-.22.99-.22.3 0 .554.043.76.13.207.087.38.2.52.34.14.133.25.287.33.46l-.09.18.21-.94h.85l-.5 4.14h-.93l.13-1.05.07.24c-.04.06-.11.143-.21.25-.1.1-.23.2-.39.3-.153.1-.336.183-.55.25-.206.06-.443.09-.71.09Zm.51-.75c.2 0 .39-.04.57-.12a1.521 1.521 0 0 0 .79-.9l.09-.81a1.15 1.15 0 0 0-.67-.9 1.368 1.368 0 0 0-.62-.14c-.273 0-.506.05-.7.15-.186.1-.34.23-.46.39-.12.153-.206.317-.26.49-.053.167-.08.323-.08.47 0 .267.057.503.17.71.114.207.27.37.47.49.207.113.44.17.7.17Zm5.039-3.47-.01.94-.07-.13c.18-.287.423-.52.73-.7a2.13 2.13 0 0 1 1.08-.27c.4 0 .71.117.93.35.227.227.323.523.29.89l-.38 3.06h-.93l.33-2.74c.027-.227-.02-.41-.14-.55-.113-.14-.3-.21-.56-.21-.247 0-.473.07-.68.21a1.563 1.563 0 0 0-.51.55c-.133.233-.217.5-.25.8l-.24 1.94h-.93l.5-4.14h.84Zm4.687 0h.93L36.09 59h-.93l.51-4.14Zm.07-1.39c0-.153.057-.283.17-.39a.59.59 0 0 1 .42-.16c.127 0 .247.04.36.12.12.08.177.203.17.37a.55.55 0 0 1-.18.39.59.59 0 0 1-.42.16.614.614 0 0 1-.36-.12.414.414 0 0 1-.16-.37Zm2.78 2.16c-.227 0-.407-.063-.54-.19-.127-.133-.177-.327-.15-.58l.05-.39h.71l-.01.13c-.014.107.003.177.05.21.046.033.13.05.25.05h2.65l-2.92 3.57-.17-.2h2.64l-.09.77h-3.82l2.97-3.65.12.28h-1.74Zm4.318-.77h.93l-.51 4.14h-.93l.51-4.14Zm.07-1.39c0-.153.057-.283.17-.39a.59.59 0 0 1 .42-.16c.127 0 .247.04.36.12.12.08.177.203.17.37a.55.55 0 0 1-.18.39.59.59 0 0 1-.42.16.614.614 0 0 1-.36-.12.415.415 0 0 1-.16-.37Zm3.31 1.39-.01.94-.07-.13a2.1 2.1 0 0 1 .73-.7c.313-.18.673-.27 1.08-.27.4 0 .71.117.93.35.226.227.323.523.29.89l-.38 3.06h-.93l.33-2.74c.026-.227-.02-.41-.14-.55-.114-.14-.3-.21-.56-.21-.247 0-.474.07-.68.21a1.562 1.562 0 0 0-.51.55 2.05 2.05 0 0 0-.25.8l-.24 1.94h-.93l.5-4.14h.84Zm6.147 6.19c-.334 0-.624-.037-.87-.11a2.264 2.264 0 0 1-.67-.3 4.448 4.448 0 0 1-.56-.46l.63-.63c.146.153.296.28.45.38.153.107.32.183.5.23.186.047.386.07.6.07.273 0 .51-.05.71-.15.2-.093.356-.23.47-.41.12-.173.193-.377.22-.61l.14-1.12.07.17c-.14.287-.364.523-.67.71-.3.18-.657.27-1.07.27-.387 0-.734-.083-1.04-.25-.3-.173-.54-.417-.72-.73-.174-.32-.26-.697-.26-1.13 0-.22.043-.46.13-.72.093-.267.233-.517.42-.75.193-.24.436-.433.73-.58.3-.153.656-.23 1.07-.23.413 0 .766.08 1.06.24.293.153.496.353.61.6l-.11.19.24-.87h.85l-.54 4.35c-.04.373-.167.697-.38.97a2.062 2.062 0 0 1-.83.64c-.34.153-.734.23-1.18.23Zm.45-5.59c-.294 0-.54.053-.74.16-.2.1-.364.23-.49.39-.12.16-.207.327-.26.5-.054.167-.08.323-.08.47 0 .267.056.503.17.71.113.2.273.357.48.47.206.113.45.17.73.17.206 0 .406-.043.6-.13.193-.087.36-.203.5-.35.146-.153.26-.327.34-.52l.1-.83a1.103 1.103 0 0 0-.24-.53 1.413 1.413 0 0 0-1.11-.51Zm3.416 5.55-.47-.33a1.11 1.11 0 0 0 .36-.57c.08-.247.107-.497.08-.75l.82.01c.026.18.013.373-.04.58a1.868 1.868 0 0 1-.27.6 1.436 1.436 0 0 1-.48.46Zm5.68-9.2h1.12l1.28 5.5-.16-.06 1.88-3.69.3 1.31-2.47 4.46-1.95-7.52Zm3.48 0h.96l1.46 5.43-.2-.04 2.53-5.39h1.03l-3.76 7.51-2.02-7.51Zm7.447 3.05-.07 1.01a2.236 2.236 0 0 1 1.18-1.03 1.74 1.74 0 0 1 .64-.14l-.15.92c-.313-.02-.6.04-.86.18a1.79 1.79 0 0 0-.62.56 1.68 1.68 0 0 0-.29.75l-.24 1.89h-.92l.5-4.14h.83Zm2.95 0h.93l-.51 4.14h-.93l.51-4.14Zm.07-1.39c0-.153.056-.283.17-.39a.59.59 0 0 1 .42-.16c.126 0 .246.04.36.12.12.08.176.203.17.37a.55.55 0 0 1-.18.39.59.59 0 0 1-.42.16.614.614 0 0 1-.36-.12.414.414 0 0 1-.16-.37Zm3.069-.43h.93l-.22 1.84h1.14l-.09.73h-1.14l-.41 3.39h-.93l.41-3.39h-.76l.08-.73h.77l.22-1.84Zm2.993 1.82h.93L82.34 59h-.93l.51-4.14Zm.07-1.39c0-.153.057-.283.17-.39a.59.59 0 0 1 .42-.16c.127 0 .247.04.36.12.12.08.177.203.17.37a.55.55 0 0 1-.18.39.59.59 0 0 1-.42.16.614.614 0 0 1-.36-.12.414.414 0 0 1-.16-.37Zm3.31 1.39-.01.94-.07-.13c.18-.287.423-.52.73-.7a2.13 2.13 0 0 1 1.08-.27c.4 0 .71.117.93.35.226.227.323.523.29.89l-.38 3.06h-.93l.33-2.74c.026-.227-.02-.41-.14-.55-.114-.14-.3-.21-.56-.21-.247 0-.474.07-.68.21a1.563 1.563 0 0 0-.51.55c-.134.233-.217.5-.25.8l-.24 1.94h-.93l.5-4.14h.84Zm6.147 6.19c-.334 0-.624-.037-.87-.11a2.264 2.264 0 0 1-.67-.3 4.448 4.448 0 0 1-.56-.46l.63-.63c.146.153.296.28.45.38.153.107.32.183.5.23.186.047.386.07.6.07.273 0 .51-.05.71-.15.2-.093.356-.23.47-.41.12-.173.193-.377.22-.61l.14-1.12.07.17c-.14.287-.364.523-.67.71-.3.18-.657.27-1.07.27-.387 0-.734-.083-1.04-.25-.3-.173-.54-.417-.72-.73-.174-.32-.26-.697-.26-1.13 0-.22.043-.46.13-.72.093-.267.233-.517.42-.75.193-.24.436-.433.73-.58.3-.153.656-.23 1.07-.23.413 0 .766.08 1.06.24.293.153.496.353.61.6l-.11.19.24-.87h.85l-.54 4.35c-.04.373-.167.697-.38.97a2.062 2.062 0 0 1-.83.64c-.34.153-.734.23-1.18.23Zm.45-5.59c-.294 0-.54.053-.74.16-.2.1-.364.23-.49.39-.12.16-.207.327-.26.5-.054.167-.08.323-.08.47 0 .267.056.503.17.71.113.2.273.357.48.47.206.113.45.17.73.17.206 0 .406-.043.6-.13.193-.087.36-.203.5-.35.146-.153.26-.327.34-.52l.1-.83a1.103 1.103 0 0 0-.24-.53 1.413 1.413 0 0 0-1.11-.51Zm3.416 5.55-.47-.33a1.11 1.11 0 0 0 .36-.57c.08-.247.106-.497.08-.75l.82.01c.026.18.013.373-.04.58a1.872 1.872 0 0 1-.27.6 1.438 1.438 0 0 1-.48.46Zm8.219-9.24c.327 0 .627.043.9.13.28.087.52.213.72.38.207.167.367.373.48.62.114.24.17.52.17.84 0 .3-.05.603-.15.91-.1.3-.26.58-.48.84-.213.253-.493.46-.84.62-.346.153-.763.23-1.25.23h-1.04l-.32 2.66h-1l.89-7.23h1.92Zm-.36 3.64c.307 0 .564-.053.77-.16a1.4 1.4 0 0 0 .49-.4c.127-.167.217-.337.27-.51.06-.173.09-.327.09-.46 0-.187-.043-.37-.13-.55a1.032 1.032 0 0 0-.41-.44c-.186-.12-.433-.18-.74-.18h-1.02l-.33 2.7h1.01Zm5.25 3.69a2.453 2.453 0 0 1-1.49-.51 1.928 1.928 0 0 1-.51-.64 1.939 1.939 0 0 1-.19-.88c0-.26.043-.527.13-.8.093-.28.233-.537.42-.77a2.1 2.1 0 0 1 .73-.57c.307-.147.677-.22 1.11-.22.38 0 .733.08 1.06.24.333.16.603.393.81.7.213.3.32.663.32 1.09 0 .173-.027.37-.08.59a2.377 2.377 0 0 1-.24.63 2.079 2.079 0 0 1-.44.57c-.18.173-.407.313-.68.42-.267.1-.583.15-.95.15Zm.03-.77c.34 0 .613-.08.82-.24.207-.167.357-.37.45-.61.093-.24.14-.473.14-.7 0-.233-.04-.43-.12-.59a1.063 1.063 0 0 0-.31-.41 1.186 1.186 0 0 0-.42-.23 1.232 1.232 0 0 0-.42-.08c-.333 0-.607.08-.82.24a1.44 1.44 0 0 0-.46.61 1.93 1.93 0 0 0-.14.7c0 .3.063.547.19.74.133.193.3.337.5.43.2.093.397.14.59.14Zm4.639.75c-.133 0-.3-.02-.5-.06-.193-.033-.39-.1-.59-.2a1.683 1.683 0 0 1-.52-.46l.46-.51c.133.16.267.283.4.37.14.08.273.133.4.16.127.02.243.03.35.03.24 0 .413-.06.52-.18.107-.127.16-.247.16-.36 0-.14-.043-.25-.13-.33a.954.954 0 0 0-.34-.21 5.97 5.97 0 0 0-.42-.17c-.3-.12-.53-.27-.69-.45a1.024 1.024 0 0 1-.23-.67c0-.133.027-.273.08-.42a1.29 1.29 0 0 1 .7-.76c.187-.087.42-.13.7-.13.127 0 .273.013.44.04.173.02.35.07.53.15.187.073.357.19.51.35l-.43.55a1.047 1.047 0 0 0-.45-.33c-.167-.067-.33-.1-.49-.1a.718.718 0 0 0-.36.08.491.491 0 0 0-.21.19c-.04.08-.06.16-.06.24 0 .127.043.23.13.31.087.08.197.147.33.2.133.053.267.11.4.17.187.073.353.163.5.27.147.1.26.227.34.38.08.147.113.333.1.56a1.482 1.482 0 0 1-.41.87 1.44 1.44 0 0 1-.49.31c-.2.073-.443.11-.73.11Zm3.902-6.04h.93l-.22 1.84h1.14l-.09.73h-1.14l-.41 3.39h-.93l.41-3.39h-.76l.08-.73h.77l.22-1.84Zm2.994 1.82h.93l-.51 4.14h-.93l.51-4.14Zm.07-1.39c0-.153.056-.283.17-.39a.617.617 0 0 1 .78-.04c.12.08.176.203.17.37a.553.553 0 0 1-.18.39.592.592 0 0 1-.42.16.612.612 0 0 1-.36-.12.412.412 0 0 1-.16-.37Zm3.309 1.39-.01.94-.07-.13c.18-.287.423-.52.73-.7.313-.18.673-.27 1.08-.27.4 0 .71.117.93.35.227.227.323.523.29.89l-.38 3.06h-.93l.33-2.74c.027-.227-.02-.41-.14-.55-.113-.14-.3-.21-.56-.21-.247 0-.473.07-.68.21a1.556 1.556 0 0 0-.51.55 2.05 2.05 0 0 0-.25.8l-.24 1.94h-.93l.5-4.14h.84Zm6.147 6.19c-.333 0-.623-.037-.87-.11a2.272 2.272 0 0 1-.67-.3 4.477 4.477 0 0 1-.56-.46l.63-.63c.147.153.297.28.45.38.154.107.32.183.5.23.187.047.387.07.6.07.274 0 .51-.05.71-.15.2-.093.357-.23.47-.41.12-.173.194-.377.22-.61l.14-1.12.07.17c-.14.287-.363.523-.67.71-.3.18-.656.27-1.07.27-.386 0-.733-.083-1.04-.25-.3-.173-.54-.417-.72-.73-.173-.32-.26-.697-.26-1.13 0-.22.044-.46.13-.72a2.56 2.56 0 0 1 .42-.75 2.18 2.18 0 0 1 .73-.58c.3-.153.657-.23 1.07-.23.414 0 .767.08 1.06.24.294.153.497.353.61.6l-.11.19.24-.87h.85l-.54 4.35c-.04.373-.166.697-.38.97a2.054 2.054 0 0 1-.83.64c-.34.153-.733.23-1.18.23Zm.45-5.59c-.293 0-.54.053-.74.16-.2.1-.363.23-.49.39-.12.16-.206.327-.26.5-.053.167-.08.323-.08.47 0 .267.057.503.17.71.114.2.274.357.48.47.207.113.45.17.73.17a1.565 1.565 0 0 0 1.1-.48c.147-.153.26-.327.34-.52l.1-.83a1.095 1.095 0 0 0-.24-.53 1.269 1.269 0 0 0-.47-.37 1.41 1.41 0 0 0-.64-.14Zm7.924-.6-.01.94-.07-.13c.18-.287.424-.52.73-.7.314-.18.674-.27 1.08-.27.4 0 .71.117.93.35.227.227.324.523.29.89l-.38 3.06h-.93l.33-2.74c.027-.227-.02-.41-.14-.55-.113-.14-.3-.21-.56-.21-.246 0-.473.07-.68.21a1.574 1.574 0 0 0-.51.55c-.133.233-.216.5-.25.8l-.24 1.94h-.93l.5-4.14h.84Zm6.258 4.24a2.453 2.453 0 0 1-1.49-.51 1.903 1.903 0 0 1-.51-.64 1.939 1.939 0 0 1-.19-.88c0-.26.043-.527.13-.8.093-.28.233-.537.42-.77a2.09 2.09 0 0 1 .73-.57c.306-.147.676-.22 1.11-.22.38 0 .733.08 1.06.24.333.16.603.393.81.7.213.3.32.663.32 1.09 0 .173-.027.37-.08.59a2.377 2.377 0 0 1-.24.63 2.098 2.098 0 0 1-.44.57c-.18.173-.407.313-.68.42-.267.1-.584.15-.95.15Zm.03-.77c.34 0 .613-.08.82-.24a1.46 1.46 0 0 0 .45-.61c.093-.24.14-.473.14-.7 0-.233-.04-.43-.12-.59a1.073 1.073 0 0 0-.31-.41 1.186 1.186 0 0 0-.42-.23 1.232 1.232 0 0 0-.42-.08c-.334 0-.607.08-.82.24a1.44 1.44 0 0 0-.46.61 1.91 1.91 0 0 0-.14.7c0 .3.063.547.19.74.133.193.3.337.5.43.2.093.396.14.59.14Zm4.459-5.29h.93l-.22 1.84h1.14l-.09.73h-1.14l-.41 3.39h-.93l.41-3.39h-.76l.08-.73h.77l.22-1.84Zm4.653 5.26c.167 0 .327-.027.48-.08.154-.06.3-.133.44-.22l.34.71c-.2.12-.42.213-.66.28-.233.067-.463.1-.69.1-.433 0-.813-.08-1.14-.24a1.872 1.872 0 0 1-.77-.72c-.18-.313-.27-.69-.27-1.13a2.291 2.291 0 0 1 .6-1.54c.2-.227.447-.407.74-.54.3-.14.647-.21 1.04-.21.247 0 .48.033.7.1.227.06.434.163.62.31.187.147.344.343.47.59.134.247.227.55.28.91l-3.54 1-.15-.57 3.02-.87-.33.15c-.066-.26-.2-.473-.4-.64a1.034 1.034 0 0 0-.7-.25c-.293 0-.546.07-.76.21-.213.133-.376.31-.49.53-.113.22-.17.457-.17.71 0 .32.064.583.19.79.127.207.294.363.5.47.207.1.424.15.65.15Zm4.335.78c-.133 0-.3-.02-.5-.06-.193-.033-.39-.1-.59-.2a1.694 1.694 0 0 1-.52-.46l.46-.51c.134.16.267.283.4.37.14.08.274.133.4.16.127.02.244.03.35.03.24 0 .414-.06.52-.18.107-.127.16-.247.16-.36 0-.14-.043-.25-.13-.33a.945.945 0 0 0-.34-.21 5.97 5.97 0 0 0-.42-.17c-.3-.12-.53-.27-.69-.45a1.024 1.024 0 0 1-.23-.67c0-.133.027-.273.08-.42a1.308 1.308 0 0 1 .7-.76c.187-.087.42-.13.7-.13.127 0 .274.013.44.04.174.02.35.07.53.15.187.073.357.19.51.35l-.43.55a1.047 1.047 0 0 0-.45-.33 1.31 1.31 0 0 0-.49-.1.724.724 0 0 0-.36.08.491.491 0 0 0-.21.19c-.04.08-.06.16-.06.24 0 .127.044.23.13.31.087.08.197.147.33.2.134.053.267.11.4.17.187.073.354.163.5.27.147.1.26.227.34.38.08.147.114.333.1.56a1.43 1.43 0 0 1-.12.44 1.463 1.463 0 0 1-.29.43 1.43 1.43 0 0 1-.49.31c-.2.073-.443.11-.73.11Z"/>
  </g>
  <defs>
    <clipPath id="a">
      <path fill="#fff" d="M0 0h190v73H0z"/>
    </clipPath>
    <filter id="b" width="186" height="20" x="37" y="69" color-interpolation-filters="sRGB" filterUnits="userSpaceOnUse">
      <feFlood flood-opacity="0" result="BackgroundImageFix"/>
      <feBlend in="SourceGraphic" in2="BackgroundImageFix" result="shape"/>
      <feGaussianBlur result="effect1_foregroundBlur_2_4" stdDeviation="2"/>
    </filter>
  </defs>
</svg>
