<svg xmlns="http://www.w3.org/2000/svg" width="190" height="73" fill="none" viewBox="0 0 190 73">
  <g clip-path="url(#a)">
    <path fill="#fff" d="M0 0h190v73H0z"/>
    <path fill="#000" d="m28.96 42-6.732-13.932-.18.072.216 4.248V42h-4.536V16.8h3.636l6.624 14.472.18-.072-.396-4.428V16.8h4.536V42H28.96Zm17.567 0H38.68c-2.4-2.232-3.6-5.28-3.6-9.144 0-1.944.264-3.636.792-5.076.552-1.44 1.416-2.832 2.592-4.176h8.424c1.248 1.44 2.1 2.844 2.556 4.212.456 1.344.684 3.024.684 5.04 0 3.864-1.2 6.912-3.6 9.144Zm-5.292-3.78h2.736c.864-1.68 1.296-3.588 1.296-5.724s-.444-3.84-1.332-5.112h-2.7c-.864 1.224-1.296 2.964-1.296 5.22 0 2.232.432 4.104 1.296 5.616Zm12.198-4.248v-6.588h-2.484v-3.78h2.484V18.6h4.788v5.004h2.952v3.78H58.22v7.74c0 1.464.252 2.496.756 3.096h2.196V42H56.06c-1.272-1.176-2.04-2.448-2.304-3.816-.216-1.152-.324-2.556-.324-4.212Zm18.099-6.588h-2.7c-.36.432-.66 1.032-.9 1.8a8.23 8.23 0 0 0-.324 2.232h5.148a6.088 6.088 0 0 0-.288-2.232c-.24-.792-.552-1.392-.936-1.8Zm4.896 10.836V42h-9.144c-1.68-1.128-2.868-2.52-3.564-4.176-.672-1.68-1.008-3.372-1.008-5.076 0-3.936 1.488-6.984 4.464-9.144h5.832c1.608 1.176 2.7 2.424 3.276 3.744.576 1.32.864 2.652.864 3.996 0 1.344-.108 2.496-.324 3.456H67.86c.072.552.276 1.188.612 1.908.36.696.744 1.2 1.152 1.512h6.804Zm18.76-21.42L90.076 42h-6.768l-5.112-25.2h5.184l1.98 11.664 1.224 7.56h.216l1.224-7.56 1.98-11.664h5.184Zm8.617 10.584h-2.7c-.36.432-.66 1.032-.9 1.8a8.245 8.245 0 0 0-.324 2.232h5.148a6.088 6.088 0 0 0-.288-2.232c-.24-.792-.552-1.392-.936-1.8Zm4.896 10.836V42h-9.144c-1.68-1.128-2.868-2.52-3.564-4.176-.672-1.68-1.008-3.372-1.008-5.076 0-3.936 1.488-6.984 4.464-9.144h5.832c1.608 1.176 2.7 2.424 3.276 3.744.576 1.32.864 2.652.864 3.996 0 1.344-.108 2.496-.324 3.456h-8.964c.072.552.276 1.188.612 1.908.36.696.744 1.2 1.152 1.512h6.804Zm3.172 3.78V23.604h3.42l.9 1.944c.96-1.296 2.172-1.944 3.636-1.944h1.404v4.824h-4.572V42h-4.788Zm12.873-18.396h7.956v3.78h-5.616l3.42 5.076c1.536 2.184 2.388 3.684 2.556 4.5.096.384.144.78.144 1.188 0 1.704-.636 2.988-1.908 3.852h-9.18v-3.78h6.588l-3.852-5.652a19.29 19.29 0 0 0-.792-1.116c-.336-.48-.6-.864-.792-1.152-.192-.312-.324-.54-.396-.684a14.576 14.576 0 0 0-.288-.54 3.694 3.694 0 0 1-.252-.612c-.096-.456-.144-.828-.144-1.116 0-1.752.852-3 2.556-3.744Zm18.751 3.78h-2.7c-.36.432-.66 1.032-.9 1.8a8.23 8.23 0 0 0-.324 2.232h5.148a6.088 6.088 0 0 0-.288-2.232c-.24-.792-.552-1.392-.936-1.8Zm4.896 10.836V42h-9.144c-1.68-1.128-2.868-2.52-3.564-4.176-.672-1.68-1.008-3.372-1.008-5.076 0-3.936 1.488-6.984 4.464-9.144h5.832c1.608 1.176 2.7 2.424 3.276 3.744.576 1.32.864 2.652.864 3.996 0 1.344-.108 2.496-.324 3.456h-8.964c.072.552.276 1.188.612 1.908.36.696.744 1.2 1.152 1.512h6.804Z"/>
    <g filter="url(#b)">
      <mask id="c" width="178" height="12" x="41" y="73" fill="#000" maskUnits="userSpaceOnUse">
        <path fill="#fff" d="M41 73h178v12H41z"/>
        <path d="M217 83v-8H43v8h174Z"/>
      </mask>
      <path fill="#fff" d="M217 83v-8H43v8h174Z"/>
      <path fill="#fff" d="M217 75h2v-2h-2v2Zm0 8v2h2v-2h-2ZM43 83h-2v2h2v-2Zm0-8v-2h-2v2h2Zm172 0v8h4v-8h-4Zm2 6H43v4h174v-4ZM45 83v-8h-4v8h4Zm-2-6h174v-4H43v4Z" mask="url(#c)"/>
    </g>
    <path fill="#335CFF" d="M13.25 54.07a3.79 3.79 0 0 1-1.28-.22 3.497 3.497 0 0 1-1.12-.65 3.106 3.106 0 0 1-.78-1.07c-.193-.427-.29-.92-.29-1.48 0-.44.083-.89.25-1.35.167-.467.413-.893.74-1.28.327-.393.737-.71 1.23-.95.493-.247 1.063-.37 1.71-.37.44 0 .867.073 1.28.22.42.147.793.363 1.12.65.327.287.587.647.78 1.08.193.427.29.92.29 1.48 0 .44-.083.893-.25 1.36a4.27 4.27 0 0 1-.74 1.28 3.71 3.71 0 0 1-1.23.94c-.487.24-1.057.36-1.71.36Zm.02-.93c.5 0 .933-.09 1.3-.27a2.69 2.69 0 0 0 .9-.72c.24-.293.417-.613.53-.96.12-.347.18-.683.18-1.01 0-.347-.063-.67-.19-.97a2.41 2.41 0 0 0-.52-.81 2.41 2.41 0 0 0-.8-.56c-.3-.14-.633-.21-1-.21-.5 0-.933.093-1.3.28-.36.18-.66.417-.9.71a3.059 3.059 0 0 0-.52.96c-.113.347-.17.687-.17 1.02 0 .34.06.663.18.97.12.307.29.577.51.81.227.233.49.42.79.56.307.133.643.2 1.01.2Zm6.214-3.28-.07 1.01a2.236 2.236 0 0 1 1.18-1.03 1.74 1.74 0 0 1 .64-.14l-.15.92c-.314-.02-.6.04-.86.18a1.79 1.79 0 0 0-.62.56 1.68 1.68 0 0 0-.29.75l-.24 1.89h-.92l.5-4.14h.83Zm4.233 6.19c-.333 0-.623-.037-.87-.11a2.264 2.264 0 0 1-.67-.3 4.448 4.448 0 0 1-.56-.46l.63-.63c.147.153.297.28.45.38.154.107.32.183.5.23.187.047.387.07.6.07.274 0 .51-.05.71-.15.2-.093.357-.23.47-.41.12-.173.194-.377.22-.61l.14-1.12.07.17c-.14.287-.363.523-.67.71-.3.18-.656.27-1.07.27-.386 0-.733-.083-1.04-.25-.3-.173-.54-.417-.72-.73-.173-.32-.26-.697-.26-1.13 0-.22.044-.46.13-.72a2.56 2.56 0 0 1 .42-.75 2.18 2.18 0 0 1 .73-.58c.3-.153.657-.23 1.07-.23.414 0 .767.08 1.06.24.294.153.497.353.61.6l-.11.19.24-.87h.85l-.54 4.35c-.04.373-.166.697-.38.97a2.062 2.062 0 0 1-.83.64c-.34.153-.733.23-1.18.23Zm.45-5.59c-.293 0-.54.053-.74.16-.2.1-.363.23-.49.39-.12.16-.206.327-.26.5-.053.167-.08.323-.08.47 0 .267.057.503.17.71.114.2.274.357.48.47.207.113.45.17.73.17a1.565 1.565 0 0 0 1.1-.48c.147-.153.26-.327.34-.52l.1-.83a1.103 1.103 0 0 0-.24-.53 1.413 1.413 0 0 0-1.11-.51Zm5.266 3.62c-.306 0-.6-.08-.88-.24a1.933 1.933 0 0 1-.67-.7c-.166-.3-.25-.657-.25-1.07 0-.28.05-.557.15-.83a2.71 2.71 0 0 1 .45-.77c.2-.233.44-.42.72-.56.287-.147.617-.22.99-.22.3 0 .554.043.76.13.207.087.38.2.52.34.14.133.25.287.33.46l-.09.18.21-.94h.85l-.5 4.14h-.93l.13-1.05.07.24c-.04.06-.11.143-.21.25-.1.1-.23.2-.39.3-.153.1-.336.183-.55.25-.206.06-.443.09-.71.09Zm.51-.75c.2 0 .39-.04.57-.12a1.521 1.521 0 0 0 .79-.9l.09-.81a1.15 1.15 0 0 0-.67-.9 1.368 1.368 0 0 0-.62-.14c-.273 0-.506.05-.7.15-.186.1-.34.23-.46.39-.12.153-.206.317-.26.49-.053.167-.08.323-.08.47 0 .267.057.503.17.71.114.207.27.37.47.49.207.113.44.17.7.17Zm5.039-3.47-.01.94-.07-.13c.18-.287.423-.52.73-.7a2.13 2.13 0 0 1 1.08-.27c.4 0 .71.117.93.35.227.227.323.523.29.89l-.38 3.06h-.93l.33-2.74c.027-.227-.02-.41-.14-.55-.113-.14-.3-.21-.56-.21-.247 0-.473.07-.68.21a1.563 1.563 0 0 0-.51.55c-.133.233-.217.5-.25.8l-.24 1.94h-.93l.5-4.14h.84Zm4.687 0h.93L40.09 54h-.93l.51-4.14Zm.07-1.39c0-.153.057-.283.17-.39a.59.59 0 0 1 .42-.16c.127 0 .247.04.36.12.12.08.177.203.17.37a.55.55 0 0 1-.18.39.59.59 0 0 1-.42.16.614.614 0 0 1-.36-.12.414.414 0 0 1-.16-.37Zm2.78 2.16c-.227 0-.407-.063-.54-.19-.127-.133-.177-.327-.15-.58l.05-.39h.71l-.01.13c-.014.107.003.177.05.21.046.033.13.05.25.05h2.65l-2.92 3.57-.17-.2h2.64l-.09.77h-3.82l2.97-3.65.12.28h-1.74Zm4.318-.77h.93l-.51 4.14h-.93l.51-4.14Zm.07-1.39c0-.153.057-.283.17-.39a.59.59 0 0 1 .42-.16c.127 0 .247.04.36.12.12.08.177.203.17.37a.55.55 0 0 1-.18.39.59.59 0 0 1-.42.16.614.614 0 0 1-.36-.12.415.415 0 0 1-.16-.37Zm3.31 1.39-.01.94-.07-.13a2.1 2.1 0 0 1 .73-.7c.313-.18.673-.27 1.08-.27.4 0 .71.117.93.35.226.227.323.523.29.89l-.38 3.06h-.93l.33-2.74c.026-.227-.02-.41-.14-.55-.114-.14-.3-.21-.56-.21-.247 0-.474.07-.68.21a1.562 1.562 0 0 0-.51.55 2.05 2.05 0 0 0-.25.8l-.24 1.94h-.93l.5-4.14h.84Zm6.147 6.19c-.334 0-.624-.037-.87-.11a2.264 2.264 0 0 1-.67-.3 4.448 4.448 0 0 1-.56-.46l.63-.63c.146.153.296.28.45.38.153.107.32.183.5.23.186.047.386.07.6.07.273 0 .51-.05.71-.15.2-.093.356-.23.47-.41.12-.173.193-.377.22-.61l.14-1.12.07.17c-.14.287-.364.523-.67.71-.3.18-.657.27-1.07.27-.387 0-.734-.083-1.04-.25-.3-.173-.54-.417-.72-.73-.174-.32-.26-.697-.26-1.13 0-.22.043-.46.13-.72.093-.267.233-.517.42-.75.193-.24.436-.433.73-.58.3-.153.656-.23 1.07-.23.413 0 .766.08 1.06.24.293.153.496.353.61.6l-.11.19.24-.87h.85l-.54 4.35c-.04.373-.167.697-.38.97a2.062 2.062 0 0 1-.83.64c-.34.153-.734.23-1.18.23Zm.45-5.59c-.294 0-.54.053-.74.16-.2.1-.364.23-.49.39-.12.16-.207.327-.26.5-.054.167-.08.323-.08.47 0 .267.056.503.17.71.113.2.273.357.48.47.206.113.45.17.73.17.206 0 .406-.043.6-.13.193-.087.36-.203.5-.35.146-.153.26-.327.34-.52l.1-.83a1.103 1.103 0 0 0-.24-.53 1.413 1.413 0 0 0-1.11-.51Zm3.416 5.55-.47-.33a1.11 1.11 0 0 0 .36-.57c.08-.247.107-.497.08-.75l.82.01c.026.18.013.373-.04.58a1.868 1.868 0 0 1-.27.6 1.436 1.436 0 0 1-.48.46Zm5.68-9.2h1.12l1.28 5.5-.16-.06 1.88-3.69.3 1.31-2.47 4.46-1.95-7.52Zm3.48 0h.96l1.46 5.43-.2-.04 2.53-5.39h1.03l-3.76 7.51-2.02-7.51Zm7.447 3.05-.07 1.01a2.236 2.236 0 0 1 1.18-1.03 1.74 1.74 0 0 1 .64-.14l-.15.92c-.313-.02-.6.04-.86.18a1.79 1.79 0 0 0-.62.56 1.68 1.68 0 0 0-.29.75l-.24 1.89h-.92l.5-4.14h.83Zm2.95 0h.93l-.51 4.14h-.93l.51-4.14Zm.07-1.39c0-.153.056-.283.17-.39a.59.59 0 0 1 .42-.16c.126 0 .246.04.36.12.12.08.176.203.17.37a.55.55 0 0 1-.18.39.59.59 0 0 1-.42.16.614.614 0 0 1-.36-.12.414.414 0 0 1-.16-.37Zm3.069-.43h.93l-.22 1.84h1.14l-.09.73h-1.14l-.41 3.39h-.93l.41-3.39h-.76l.08-.73h.77l.22-1.84Zm2.993 1.82h.93L86.34 54h-.93l.51-4.14Zm.07-1.39c0-.153.057-.283.17-.39a.59.59 0 0 1 .42-.16c.127 0 .247.04.36.12.12.08.177.203.17.37a.55.55 0 0 1-.18.39.59.59 0 0 1-.42.16.614.614 0 0 1-.36-.12.414.414 0 0 1-.16-.37Zm3.31 1.39-.01.94-.07-.13c.18-.287.423-.52.73-.7a2.13 2.13 0 0 1 1.08-.27c.4 0 .71.117.93.35.226.227.323.523.29.89l-.38 3.06h-.93l.33-2.74c.026-.227-.02-.41-.14-.55-.114-.14-.3-.21-.56-.21-.247 0-.474.07-.68.21a1.563 1.563 0 0 0-.51.55c-.134.233-.217.5-.25.8l-.24 1.94h-.93l.5-4.14h.84Zm6.147 6.19c-.334 0-.624-.037-.87-.11a2.264 2.264 0 0 1-.67-.3 4.448 4.448 0 0 1-.56-.46l.63-.63c.146.153.296.28.45.38.153.107.32.183.5.23.186.047.386.07.6.07.273 0 .51-.05.71-.15.2-.093.356-.23.47-.41.12-.173.193-.377.22-.61l.14-1.12.07.17c-.14.287-.364.523-.67.71-.3.18-.657.27-1.07.27-.387 0-.734-.083-1.04-.25-.3-.173-.54-.417-.72-.73-.174-.32-.26-.697-.26-1.13 0-.22.043-.46.13-.72.093-.267.233-.517.42-.75.193-.24.436-.433.73-.58.3-.153.656-.23 1.07-.23.413 0 .766.08 1.06.24.293.153.496.353.61.6l-.11.19.24-.87h.85l-.54 4.35c-.04.373-.167.697-.38.97a2.062 2.062 0 0 1-.83.64c-.34.153-.734.23-1.18.23Zm.45-5.59c-.294 0-.54.053-.74.16-.2.1-.364.23-.49.39-.12.16-.207.327-.26.5-.054.167-.08.323-.08.47 0 .267.056.503.17.71.113.2.273.357.48.47.206.113.45.17.73.17.206 0 .406-.043.6-.13.193-.087.36-.203.5-.35.146-.153.26-.327.34-.52l.1-.83a1.103 1.103 0 0 0-.24-.53 1.413 1.413 0 0 0-1.11-.51Zm3.416 5.55-.47-.33a1.11 1.11 0 0 0 .36-.57c.08-.247.106-.497.08-.75l.82.01c.027.18.013.373-.04.58a1.864 1.864 0 0 1-.27.6 1.438 1.438 0 0 1-.48.46Zm8.219-9.24c.327 0 .627.043.9.13.28.087.52.213.72.38.207.167.367.373.48.62.114.24.17.52.17.84 0 .3-.05.603-.15.91-.1.3-.26.58-.48.84-.213.253-.493.46-.84.62-.346.153-.763.23-1.25.23h-1.04l-.32 2.66h-1l.89-7.23h1.92Zm-.36 3.64c.307 0 .564-.053.77-.16a1.4 1.4 0 0 0 .49-.4c.127-.167.217-.337.27-.51.06-.173.09-.327.09-.46 0-.187-.043-.37-.13-.55a1.032 1.032 0 0 0-.41-.44c-.186-.12-.433-.18-.74-.18h-1.02l-.33 2.7h1.01Zm5.25 3.69a2.453 2.453 0 0 1-1.49-.51 1.928 1.928 0 0 1-.51-.64 1.939 1.939 0 0 1-.19-.88c0-.26.043-.527.13-.8.093-.28.233-.537.42-.77a2.1 2.1 0 0 1 .73-.57c.307-.147.677-.22 1.11-.22.38 0 .733.08 1.06.24.333.16.603.393.81.7.213.3.32.663.32 1.09 0 .173-.027.37-.08.59a2.377 2.377 0 0 1-.24.63 2.079 2.079 0 0 1-.44.57c-.18.173-.407.313-.68.42-.267.1-.583.15-.95.15Zm.03-.77c.34 0 .613-.08.82-.24.207-.167.357-.37.45-.61.093-.24.14-.473.14-.7 0-.233-.04-.43-.12-.59a1.063 1.063 0 0 0-.31-.41 1.186 1.186 0 0 0-.42-.23 1.232 1.232 0 0 0-.42-.08c-.333 0-.607.08-.82.24a1.44 1.44 0 0 0-.46.61 1.93 1.93 0 0 0-.14.7c0 .3.063.547.19.74.133.193.3.337.5.43.2.093.397.14.59.14Zm4.639.75c-.133 0-.3-.02-.5-.06-.193-.033-.39-.1-.59-.2a1.683 1.683 0 0 1-.52-.46l.46-.51c.133.16.267.283.4.37.14.08.273.133.4.16.127.02.243.03.35.03.24 0 .413-.06.52-.18.107-.127.16-.247.16-.36 0-.14-.043-.25-.13-.33a.954.954 0 0 0-.34-.21 5.97 5.97 0 0 0-.42-.17c-.3-.12-.53-.27-.69-.45a1.024 1.024 0 0 1-.23-.67c0-.133.027-.273.08-.42a1.29 1.29 0 0 1 .7-.76c.187-.087.42-.13.7-.13.127 0 .273.013.44.04.173.02.35.07.53.15.187.073.357.19.51.35l-.43.55a1.047 1.047 0 0 0-.45-.33c-.167-.067-.33-.1-.49-.1a.718.718 0 0 0-.36.08.491.491 0 0 0-.21.19c-.04.08-.06.16-.06.24 0 .127.043.23.13.31.087.08.197.147.33.2.133.053.267.11.4.17.187.073.353.163.5.27.147.1.26.227.34.38.08.147.113.333.1.56a1.482 1.482 0 0 1-.41.87 1.44 1.44 0 0 1-.49.31c-.2.073-.443.11-.73.11Zm3.902-6.04h.93l-.22 1.84h1.14l-.09.73h-1.14l-.41 3.39h-.93l.41-3.39h-.76l.08-.73h.77l.22-1.84Zm2.994 1.82h.93l-.51 4.14h-.93l.51-4.14Zm.07-1.39c0-.153.056-.283.17-.39a.617.617 0 0 1 .78-.04c.12.08.176.203.17.37a.553.553 0 0 1-.18.39.592.592 0 0 1-.42.16.612.612 0 0 1-.36-.12.412.412 0 0 1-.16-.37Zm3.309 1.39-.01.94-.07-.13c.18-.287.423-.52.73-.7.313-.18.673-.27 1.08-.27.4 0 .71.117.93.35.227.227.323.523.29.89l-.38 3.06h-.93l.33-2.74c.027-.227-.02-.41-.14-.55-.113-.14-.3-.21-.56-.21-.247 0-.473.07-.68.21a1.556 1.556 0 0 0-.51.55 2.05 2.05 0 0 0-.25.8l-.24 1.94h-.93l.5-4.14h.84Zm6.147 6.19c-.333 0-.623-.037-.87-.11a2.272 2.272 0 0 1-.67-.3 4.477 4.477 0 0 1-.56-.46l.63-.63c.147.153.297.28.45.38.154.107.32.183.5.23.187.047.387.07.6.07.274 0 .51-.05.71-.15.2-.093.357-.23.47-.41.12-.173.194-.377.22-.61l.14-1.12.07.17c-.14.287-.363.523-.67.71-.3.18-.656.27-1.07.27-.386 0-.733-.083-1.04-.25-.3-.173-.54-.417-.72-.73-.173-.32-.26-.697-.26-1.13 0-.22.044-.46.13-.72a2.56 2.56 0 0 1 .42-.75 2.18 2.18 0 0 1 .73-.58c.3-.153.657-.23 1.07-.23.414 0 .767.08 1.06.24.294.153.497.353.61.6l-.11.19.24-.87h.85l-.54 4.35c-.04.373-.166.697-.38.97a2.054 2.054 0 0 1-.83.64c-.34.153-.733.23-1.18.23Zm.45-5.59c-.293 0-.54.053-.74.16-.2.1-.363.23-.49.39-.12.16-.206.327-.26.5-.053.167-.08.323-.08.47 0 .267.057.503.17.71.114.2.274.357.48.47.207.113.45.17.73.17a1.565 1.565 0 0 0 1.1-.48c.147-.153.26-.327.34-.52l.1-.83a1.095 1.095 0 0 0-.24-.53 1.269 1.269 0 0 0-.47-.37 1.41 1.41 0 0 0-.64-.14Zm7.924-.6-.01.94-.07-.13c.18-.287.424-.52.73-.7.314-.18.674-.27 1.08-.27.4 0 .71.117.93.35.227.227.324.523.29.89l-.38 3.06h-.93l.33-2.74c.027-.227-.02-.41-.14-.55-.113-.14-.3-.21-.56-.21-.246 0-.473.07-.68.21a1.574 1.574 0 0 0-.51.55c-.133.233-.216.5-.25.8l-.24 1.94h-.93l.5-4.14h.84Zm6.258 4.24a2.453 2.453 0 0 1-1.49-.51 1.903 1.903 0 0 1-.51-.64 1.939 1.939 0 0 1-.19-.88c0-.26.043-.527.13-.8.093-.28.233-.537.42-.77a2.09 2.09 0 0 1 .73-.57c.306-.147.676-.22 1.11-.22.38 0 .733.08 1.06.24.333.16.603.393.81.7.213.3.32.663.32 1.09 0 .173-.027.37-.08.59a2.377 2.377 0 0 1-.24.63 2.098 2.098 0 0 1-.44.57c-.18.173-.407.313-.68.42-.267.1-.584.15-.95.15Zm.03-.77c.34 0 .613-.08.82-.24a1.46 1.46 0 0 0 .45-.61c.093-.24.14-.473.14-.7 0-.233-.04-.43-.12-.59a1.073 1.073 0 0 0-.31-.41 1.186 1.186 0 0 0-.42-.23 1.232 1.232 0 0 0-.42-.08c-.334 0-.607.08-.82.24a1.44 1.44 0 0 0-.46.61 1.91 1.91 0 0 0-.14.7c0 .3.063.547.19.74.133.193.3.337.5.43.2.093.396.14.59.14Zm4.459-5.29h.93l-.22 1.84h1.14l-.09.73h-1.14l-.41 3.39h-.93l.41-3.39h-.76l.08-.73h.77l.22-1.84Zm4.653 5.26c.167 0 .327-.027.48-.08.154-.06.3-.133.44-.22l.34.71c-.2.12-.42.213-.66.28-.233.067-.463.1-.69.1-.433 0-.813-.08-1.14-.24a1.872 1.872 0 0 1-.77-.72c-.18-.313-.27-.69-.27-1.13a2.291 2.291 0 0 1 .6-1.54c.2-.227.447-.407.74-.54.3-.14.647-.21 1.04-.21.247 0 .48.033.7.1.227.06.434.163.62.31.187.147.344.343.47.59.134.247.227.55.28.91l-3.54 1-.15-.57 3.02-.87-.33.15c-.066-.26-.2-.473-.4-.64a1.034 1.034 0 0 0-.7-.25c-.293 0-.546.07-.76.21-.213.133-.376.31-.49.53-.113.22-.17.457-.17.71 0 .32.064.583.19.79.127.207.294.363.5.47.207.1.424.15.65.15Zm4.335.78c-.133 0-.3-.02-.5-.06-.193-.033-.39-.1-.59-.2a1.694 1.694 0 0 1-.52-.46l.46-.51c.134.16.267.283.4.37.14.08.274.133.4.16.127.02.244.03.35.03.24 0 .414-.06.52-.18.107-.127.16-.247.16-.36 0-.14-.043-.25-.13-.33a.945.945 0 0 0-.34-.21 5.97 5.97 0 0 0-.42-.17c-.3-.12-.53-.27-.69-.45a1.024 1.024 0 0 1-.23-.67c0-.133.027-.273.08-.42a1.308 1.308 0 0 1 .7-.76c.187-.087.42-.13.7-.13.127 0 .274.013.44.04.174.02.35.07.53.15.187.073.357.19.51.35l-.43.55a1.047 1.047 0 0 0-.45-.33 1.31 1.31 0 0 0-.49-.1.724.724 0 0 0-.36.08.491.491 0 0 0-.21.19c-.04.08-.06.16-.06.24 0 .127.044.23.13.31.087.08.197.147.33.2.134.053.267.11.4.17.187.073.354.163.5.27.147.1.26.227.34.38.08.147.114.333.1.56a1.43 1.43 0 0 1-.12.44 1.463 1.463 0 0 1-.29.43 1.43 1.43 0 0 1-.49.31c-.2.073-.443.11-.73.11Z"/>
  </g>
  <defs>
    <clipPath id="a">
      <path fill="#fff" d="M0 0h190v73H0z"/>
    </clipPath>
    <filter id="b" width="186" height="20" x="37" y="69" color-interpolation-filters="sRGB" filterUnits="userSpaceOnUse">
      <feFlood flood-opacity="0" result="BackgroundImageFix"/>
      <feBlend in="SourceGraphic" in2="BackgroundImageFix" result="shape"/>
      <feGaussianBlur result="effect1_foregroundBlur_2_4" stdDeviation="2"/>
    </filter>
  </defs>
</svg>
