<svg xmlns="http://www.w3.org/2000/svg" width="10" height="100" fill="none" viewBox="0 0 240 132">
  <path fill="#fff" d="M0 0h240v132H0z"/>
  <path fill="#000" d="m54.96 87-6.732-13.932-.18.072.216 4.248V87h-4.536V61.8h3.636l6.624 14.472.18-.072-.396-4.428V61.8h4.536V87H54.96Zm17.567 0H64.68c-2.4-2.232-3.6-5.28-3.6-9.144 0-1.944.264-3.636.792-5.076.552-1.44 1.416-2.832 2.592-4.176h8.424c1.248 1.44 2.1 2.844 2.556 4.212.456 1.344.684 3.024.684 5.04 0 3.864-1.2 6.912-3.6 9.144Zm-5.292-3.78h2.736c.864-1.68 1.296-3.588 1.296-5.724s-.444-3.84-1.332-5.112h-2.7c-.864 1.224-1.296 2.964-1.296 5.22 0 2.232.432 4.104 1.296 5.616Zm12.198-4.248v-6.588h-2.484v-3.78h2.484V63.6h4.788v5.004h2.952v3.78H84.22v7.74c0 1.464.252 2.496.756 3.096h2.196V87H82.06c-1.272-1.176-2.04-2.448-2.304-3.816-.216-1.152-.324-2.556-.324-4.212Zm18.099-6.588h-2.7c-.36.432-.66 1.032-.9 1.8a8.23 8.23 0 0 0-.324 2.232h5.148a6.088 6.088 0 0 0-.288-2.232c-.24-.792-.552-1.392-.936-1.8Zm4.896 10.836V87h-9.144c-1.68-1.128-2.868-2.52-3.564-4.176-.672-1.68-1.008-3.372-1.008-5.076 0-3.936 1.488-6.984 4.464-9.144h5.832c1.608 1.176 2.7 2.424 3.276 3.744.576 1.32.864 2.652.864 3.996 0 1.344-.108 2.496-.324 3.456H93.86c.072.552.276 1.188.612 1.908.36.696.744 1.2 1.152 1.512h6.804ZM116.976 87l-6.732-13.932-.18.072.216 4.248V87h-4.536V61.8h3.636l6.624 14.472.18-.072-.396-4.428V61.8h4.536V87h-3.348Zm14.939-14.616h-2.7c-.36.432-.66 1.032-.9 1.8a8.23 8.23 0 0 0-.324 2.232h5.148a6.088 6.088 0 0 0-.288-2.232c-.24-.792-.552-1.392-.936-1.8Zm4.896 10.836V87h-9.144c-1.68-1.128-2.868-2.52-3.564-4.176-.672-1.68-1.008-3.372-1.008-5.076 0-3.936 1.488-6.984 4.464-9.144h5.832c1.608 1.176 2.7 2.424 3.276 3.744.576 1.32.864 2.652.864 3.996 0 1.344-.108 2.496-.324 3.456h-8.964c.072.552.276 1.188.612 1.908.36.696.744 1.2 1.152 1.512h6.804Zm4.373-14.616h7.956v3.78h-5.616l3.42 5.076c1.536 2.184 2.388 3.684 2.556 4.5.096.384.144.78.144 1.188 0 1.704-.636 2.988-1.908 3.852h-9.18v-3.78h6.588l-3.852-5.652a19.29 19.29 0 0 0-.792-1.116c-.336-.48-.6-.864-.792-1.152-.192-.312-.324-.54-.396-.684a14.576 14.576 0 0 0-.288-.54 3.694 3.694 0 0 1-.252-.612c-.096-.456-.144-.828-.144-1.116 0-1.752.852-3 2.556-3.744Zm11.866 10.368v-6.588h-2.484v-3.78h2.484V63.6h4.788v5.004h2.952v3.78h-2.952v7.74c0 1.464.252 2.496.756 3.096h2.196V87h-5.112c-1.272-1.176-2.04-2.448-2.304-3.816-.216-1.152-.324-2.556-.324-4.212Z"/>
  <g filter="url(#a)">
    <mask id="b" width="8" height="1" x="8" y="73" fill="#000" maskUnits="userSpaceOnUse">
      <path fill="#fff" d="M41 73h178v12H41z"/>
      <path d="M217 83v-8H43v8h174Z"/>
    </mask>
    <path fill="#fff" d="M217 83v-8H43v8h174Z"/>
    <path fill="#fff" d="M217 75h2v-2h-2v2Zm0 8v2h2v-2h-2ZM43 83h-2v2h2v-2Zm0-8v-2h-2v2h2Zm172 0v8h4v-8h-4Zm2 6H43v4h174v-4ZM45 83v-8h-4v8h4Zm-2-6h174v-4H43v4Z" mask="url(#b)"/>
  </g>
  <path fill="#335CFF" d="m43.9 76.86-.01.94-.07-.13a2.1 2.1 0 0 1 .73-.7c.313-.18.673-.27 1.08-.27.4 0 .71.117.93.35.227.227.323.523.29.89L46.47 81h-.93l.33-2.74c.027-.227-.02-.41-.14-.55-.113-.14-.3-.21-.56-.21-.247 0-.473.07-.68.21a1.562 1.562 0 0 0-.51.55 2.05 2.05 0 0 0-.25.8L43.49 81h-.93l.5-4.14h.84Zm6.257 4.24a2.453 2.453 0 0 1-1.49-.51 1.92 1.92 0 0 1-.51-.64 1.944 1.944 0 0 1-.19-.88c0-.26.044-.527.13-.8a2.48 2.48 0 0 1 .42-.77c.187-.233.43-.423.73-.57.307-.147.677-.22 1.11-.22.38 0 .734.08 1.06.24.334.16.604.393.81.7.214.3.32.663.32 1.09 0 .173-.026.37-.08.59a2.35 2.35 0 0 1-.24.63 2.077 2.077 0 0 1-.44.57 2.03 2.03 0 0 1-.68.42c-.266.1-.583.15-.95.15Zm.03-.77c.34 0 .614-.08.82-.24.207-.167.357-.37.45-.61.094-.24.14-.473.14-.7 0-.233-.04-.43-.12-.59a1.062 1.062 0 0 0-.31-.41 1.18 1.18 0 0 0-.42-.23 1.229 1.229 0 0 0-.42-.08c-.333 0-.606.08-.82.24-.206.16-.36.363-.46.61a1.93 1.93 0 0 0-.14.7c0 .3.064.547.19.74.134.193.3.337.5.43.2.093.397.14.59.14Zm4.46-5.29h.93l-.22 1.84h1.14l-.09.73h-1.14l-.41 3.39h-.93l.41-3.39h-.76l.08-.73h.77l.22-1.84ZM59.3 80.3c.167 0 .327-.027.48-.08.153-.06.3-.133.44-.22l.34.71c-.2.12-.42.213-.66.28-.233.067-.463.1-.69.1-.433 0-.813-.08-1.14-.24a1.865 1.865 0 0 1-.77-.72c-.18-.313-.27-.69-.27-1.13a2.291 2.291 0 0 1 .6-1.54c.2-.227.447-.407.74-.54.3-.14.647-.21 1.04-.21.247 0 .48.033.7.1.227.06.433.163.62.31s.343.343.47.59c.133.247.227.55.28.91l-3.54 1-.15-.57 3.02-.87-.33.15c-.067-.26-.2-.473-.4-.64a1.036 1.036 0 0 0-.7-.25c-.293 0-.547.07-.76.21-.213.133-.377.31-.49.53-.113.22-.17.457-.17.71 0 .32.063.583.19.79.127.207.293.363.5.47.207.1.423.15.65.15Zm7.153-5.26h.93l-.22 1.84h1.14l-.09.73h-1.14l-.41 3.39h-.93l.41-3.39h-.76l.08-.73h.77l.22-1.84Zm4.174 6.04c-.307 0-.6-.08-.88-.24a1.934 1.934 0 0 1-.67-.7c-.167-.3-.25-.657-.25-1.07 0-.28.05-.557.15-.83.106-.28.256-.537.45-.77.2-.233.44-.42.72-.56.286-.147.616-.22.99-.22.3 0 .553.043.76.13a1.612 1.612 0 0 1 .85.8l-.09.18.21-.94h.85l-.5 4.14h-.93l.13-1.05.07.24c-.04.06-.11.143-.21.25-.1.1-.23.2-.39.3a2.21 2.21 0 0 1-.55.25 2.55 2.55 0 0 1-.71.09Zm.51-.75c.2 0 .39-.04.57-.12a1.52 1.52 0 0 0 .79-.9l.09-.81a1.082 1.082 0 0 0-.22-.54 1.15 1.15 0 0 0-.45-.36 1.367 1.367 0 0 0-.62-.14c-.274 0-.507.05-.7.15-.187.1-.34.23-.46.39-.12.153-.207.317-.26.49-.054.167-.08.323-.08.47 0 .267.056.503.17.71.113.207.27.37.47.49.206.113.44.17.7.17Zm3.698.67.94-7.74h.94l-.95 7.74h-.93Zm2.27-2.75 1.56 2.75h-1.09l-1.16-2.23.69-.52Zm-1.47 1.43-.01-.89 2.76-2.02.54.49-3.29 2.42Zm4.69-2.82h.93l-.51 4.14h-.93l.51-4.14Zm.07-1.39c0-.153.057-.283.17-.39a.59.59 0 0 1 .42-.16c.127 0 .247.04.36.12.12.08.177.203.17.37a.55.55 0 0 1-.18.39.59.59 0 0 1-.42.16.614.614 0 0 1-.36-.12.415.415 0 0 1-.16-.37Zm3.31 1.39-.01.94-.07-.13a2.1 2.1 0 0 1 .73-.7c.313-.18.673-.27 1.08-.27.4 0 .71.117.93.35.226.227.323.523.29.89l-.38 3.06h-.93l.33-2.74c.026-.227-.02-.41-.14-.55-.114-.14-.3-.21-.56-.21-.247 0-.474.07-.68.21a1.562 1.562 0 0 0-.51.55 2.05 2.05 0 0 0-.25.8l-.24 1.94h-.93l.5-4.14h.84Zm6.147 6.19a3.07 3.07 0 0 1-.87-.11 2.265 2.265 0 0 1-.67-.3 4.455 4.455 0 0 1-.56-.46l.63-.63c.147.153.297.28.45.38.153.107.32.183.5.23.187.047.387.07.6.07.273 0 .51-.05.71-.15.2-.093.357-.23.47-.41.12-.173.193-.377.22-.61l.14-1.12.07.17c-.14.287-.363.523-.67.71-.3.18-.657.27-1.07.27-.387 0-.733-.083-1.04-.25-.3-.173-.54-.417-.72-.73-.173-.32-.26-.697-.26-1.13 0-.22.043-.46.13-.72a2.54 2.54 0 0 1 .42-.75 2.17 2.17 0 0 1 .73-.58c.3-.153.657-.23 1.07-.23.413 0 .767.08 1.06.24.293.153.497.353.61.6l-.11.19.24-.87h.85l-.54 4.35c-.04.373-.167.697-.38.97a2.06 2.06 0 0 1-.83.64c-.34.153-.733.23-1.18.23Zm.45-5.59c-.293 0-.54.053-.74.16-.2.1-.363.23-.49.39-.12.16-.207.327-.26.5-.053.167-.08.323-.08.47 0 .267.057.503.17.71.113.2.273.357.48.47.207.113.45.17.73.17.207 0 .407-.043.6-.13.193-.087.36-.203.5-.35a1.67 1.67 0 0 0 .34-.52l.1-.83a1.1 1.1 0 0 0-.24-.53 1.412 1.412 0 0 0-1.11-.51Zm8.264 3.62c-.306 0-.6-.08-.88-.24a1.933 1.933 0 0 1-.67-.7c-.166-.3-.25-.657-.25-1.07 0-.28.05-.557.15-.83a2.71 2.71 0 0 1 .45-.77c.2-.233.44-.42.72-.56.287-.147.617-.22.99-.22.3 0 .553.043.76.13.207.087.38.2.52.34.14.133.25.287.33.46l-.09.18.21-.94h.85l-.5 4.14h-.93l.13-1.05.07.24c-.04.06-.11.143-.21.25-.1.1-.23.2-.39.3-.153.1-.336.183-.55.25-.206.06-.443.09-.71.09Zm.51-.75c.2 0 .39-.04.57-.12a1.518 1.518 0 0 0 .79-.9l.09-.81a1.077 1.077 0 0 0-.22-.54 1.146 1.146 0 0 0-.45-.36 1.368 1.368 0 0 0-.62-.14c-.273 0-.507.05-.7.15-.186.1-.34.23-.46.39-.12.153-.206.317-.26.49-.053.167-.08.323-.08.47 0 .267.057.503.17.71.113.207.27.37.47.49.207.113.44.17.7.17Zm6.019.77c-.32 0-.627-.08-.92-.24-.293-.16-.5-.36-.62-.6l.22-.24-.33 2.97h-.92l.77-6.19h.8l-.04 1.06-.2-.29c.267-.26.563-.47.89-.63.333-.167.663-.25.99-.25.353 0 .673.08.96.24a1.827 1.827 0 0 1 .95 1.64c0 .453-.107.873-.32 1.26-.213.38-.513.687-.9.92-.38.233-.823.35-1.33.35Zm-.02-.79c.32 0 .6-.073.84-.22a1.51 1.51 0 0 0 .57-.59c.14-.247.21-.507.21-.78 0-.253-.06-.477-.18-.67a1.193 1.193 0 0 0-.46-.45 1.407 1.407 0 0 0-1.26-.02c-.187.087-.353.21-.5.37-.14.153-.253.337-.34.55l-.09.75c.02.113.057.233.11.36.053.12.127.233.22.34.093.107.213.193.36.26s.32.1.52.1Zm5.869.79c-.32 0-.626-.08-.92-.24-.293-.16-.5-.36-.62-.6l.22-.24-.33 2.97h-.92l.77-6.19h.8l-.04 1.06-.2-.29c.267-.26.564-.47.89-.63a2.2 2.2 0 0 1 .99-.25c.354 0 .674.08.96.24a1.818 1.818 0 0 1 .95 1.64c0 .453-.106.873-.32 1.26-.213.38-.513.687-.9.92-.38.233-.823.35-1.33.35Zm-.02-.79c.32 0 .6-.073.84-.22a1.51 1.51 0 0 0 .57-.59c.14-.247.21-.507.21-.78 0-.253-.06-.477-.18-.67a1.187 1.187 0 0 0-.46-.45 1.41 1.41 0 0 0-1.26-.02 1.59 1.59 0 0 0-.5.37c-.14.153-.253.337-.34.55l-.09.75a1.38 1.38 0 0 0 .33.7c.094.107.214.193.36.26.147.067.32.1.52.1Zm6.868.69.4-3.31h-.71l.11-.83h.7l.21-1.75c.073-.6.267-1.06.58-1.38.313-.32.733-.48 1.26-.48.14 0 .29.02.45.06.167.04.31.107.43.2l-.48.67a.387.387 0 0 0-.18-.12.588.588 0 0 0-.22-.04c-.24 0-.44.083-.6.25-.153.167-.253.45-.3.85l-.22 1.74h1.32l-.11.83h-1.31l-.4 3.31h-.93Zm5.324.1a2.453 2.453 0 0 1-1.49-.51 1.928 1.928 0 0 1-.51-.64 1.952 1.952 0 0 1-.19-.88 2.506 2.506 0 0 1 .55-1.57 2.1 2.1 0 0 1 .73-.57c.307-.147.677-.22 1.11-.22.38 0 .734.08 1.06.24.334.16.604.393.81.7.214.3.32.663.32 1.09a2.5 2.5 0 0 1-.08.59 2.31 2.31 0 0 1-.24.63 2.06 2.06 0 0 1-.44.57c-.18.173-.406.313-.68.42-.266.1-.583.15-.95.15Zm.03-.77c.34 0 .614-.08.82-.24.207-.167.357-.37.45-.61.094-.24.14-.473.14-.7 0-.233-.04-.43-.12-.59a1.054 1.054 0 0 0-.31-.41 1.17 1.17 0 0 0-.42-.23 1.224 1.224 0 0 0-.42-.08c-.333 0-.606.08-.82.24-.206.16-.36.363-.46.61a1.93 1.93 0 0 0-.14.7c0 .3.064.547.19.74.134.193.3.337.5.43.2.093.397.14.59.14Zm4.689-3.47-.07 1.01c.14-.253.314-.467.52-.64.214-.173.434-.303.66-.39a1.75 1.75 0 0 1 .64-.14l-.15.92c-.313-.02-.6.04-.86.18-.253.14-.46.327-.62.56-.16.233-.256.483-.29.75l-.24 1.89h-.92l.5-4.14h.83Zm7.608 3.44c.166 0 .326-.027.48-.08.153-.06.3-.133.44-.22l.34.71c-.2.12-.42.213-.66.28a2.51 2.51 0 0 1-.69.1c-.434 0-.814-.08-1.14-.24a1.86 1.86 0 0 1-.77-.72c-.18-.313-.27-.69-.27-1.13a2.291 2.291 0 0 1 .6-1.54c.2-.227.446-.407.74-.54.3-.14.646-.21 1.04-.21.246 0 .48.033.7.1a1.7 1.7 0 0 1 .62.31c.186.147.343.343.47.59.133.247.226.55.28.91l-3.54 1-.15-.57 3.02-.87-.33.15a1.2 1.2 0 0 0-.4-.64 1.037 1.037 0 0 0-.7-.25c-.294 0-.547.07-.76.21a1.33 1.33 0 0 0-.49.53 1.52 1.52 0 0 0-.17.71c0 .32.063.583.19.79.126.207.293.363.5.47.206.1.423.15.65.15Zm4.548.82-1.78-4.26h1.1l1.15 3.26-.56-.02 1.83-3.24h1.04l-2.73 4.26h-.05Zm5.364-.82c.166 0 .326-.027.48-.08.153-.06.3-.133.44-.22l.34.71c-.2.12-.42.213-.66.28a2.51 2.51 0 0 1-.69.1c-.434 0-.814-.08-1.14-.24a1.86 1.86 0 0 1-.77-.72c-.18-.313-.27-.69-.27-1.13a2.291 2.291 0 0 1 .6-1.54c.2-.227.446-.407.74-.54.3-.14.646-.21 1.04-.21.246 0 .48.033.7.1a1.7 1.7 0 0 1 .62.31c.186.147.343.343.47.59.133.247.226.55.28.91l-3.54 1-.15-.57 3.02-.87-.33.15a1.2 1.2 0 0 0-.4-.64 1.037 1.037 0 0 0-.7-.25c-.294 0-.547.07-.76.21a1.33 1.33 0 0 0-.49.53 1.52 1.52 0 0 0-.17.71c0 .32.063.583.19.79.126.207.293.363.5.47.206.1.423.15.65.15Zm4.385-3.44-.07 1.01c.14-.253.313-.467.52-.64.213-.173.433-.303.66-.39.233-.093.446-.14.64-.14l-.15.92c-.314-.02-.6.04-.86.18-.254.14-.46.327-.62.56-.16.233-.257.483-.29.75l-.24 1.89h-.92l.5-4.14h.83Zm2.659 6.13 3.48-6.13h.88l-3.43 6.13h-.93Zm1.28-1.96-1.48-4.17h1.05l1.21 3.7-.78.47Zm5.394.07a2.453 2.453 0 0 1-1.49-.51 1.928 1.928 0 0 1-.51-.64 1.952 1.952 0 0 1-.19-.88 2.506 2.506 0 0 1 .55-1.57 2.1 2.1 0 0 1 .73-.57c.307-.147.677-.22 1.11-.22.38 0 .734.08 1.06.24.334.16.604.393.81.7.214.3.32.663.32 1.09a2.5 2.5 0 0 1-.08.59 2.31 2.31 0 0 1-.24.63 2.06 2.06 0 0 1-.44.57c-.18.173-.406.313-.68.42-.266.1-.583.15-.95.15Zm.03-.77c.34 0 .614-.08.82-.24.207-.167.357-.37.45-.61.094-.24.14-.473.14-.7 0-.233-.04-.43-.12-.59a1.054 1.054 0 0 0-.31-.41 1.17 1.17 0 0 0-.42-.23 1.224 1.224 0 0 0-.42-.08c-.333 0-.606.08-.82.24-.206.16-.36.363-.46.61a1.93 1.93 0 0 0-.14.7c0 .3.064.547.19.74.134.193.3.337.5.43.2.093.397.14.59.14Zm4.699-3.47-.01.94-.07-.13c.18-.287.424-.52.73-.7.314-.18.674-.27 1.08-.27.4 0 .71.117.93.35.227.227.324.523.29.89l-.38 3.06h-.93l.33-2.74c.027-.227-.02-.41-.14-.55-.113-.14-.3-.21-.56-.21-.246 0-.473.07-.68.21a1.574 1.574 0 0 0-.51.55c-.133.233-.216.5-.25.8l-.24 1.94h-.93l.5-4.14h.84Zm6.348 3.44c.166 0 .326-.027.48-.08.153-.06.3-.133.44-.22l.34.71c-.2.12-.42.213-.66.28a2.51 2.51 0 0 1-.69.1c-.434 0-.814-.08-1.14-.24a1.86 1.86 0 0 1-.77-.72c-.18-.313-.27-.69-.27-1.13a2.291 2.291 0 0 1 .6-1.54c.2-.227.446-.407.74-.54.3-.14.646-.21 1.04-.21.246 0 .48.033.7.1a1.7 1.7 0 0 1 .62.31c.186.147.343.343.47.59.133.247.226.55.28.91l-3.54 1-.15-.57 3.02-.87-.33.15a1.2 1.2 0 0 0-.4-.64 1.037 1.037 0 0 0-.7-.25c-.294 0-.547.07-.76.21a1.33 1.33 0 0 0-.49.53 1.52 1.52 0 0 0-.17.71c0 .32.063.583.19.79.126.207.293.363.5.47.206.1.423.15.65.15Z"/>
  <defs>
    <filter id="a" width="186" height="20" x="37" y="69" color-interpolation-filters="sRGB" filterUnits="userSpaceOnUse">
      <feFlood flood-opacity="0" result="BackgroundImageFix"/>
      <feBlend in="SourceGraphic" in2="BackgroundImageFix" result="shape"/>
      <feGaussianBlur result="effect1_foregroundBlur_3_31" stdDeviation="2"/>
    </filter>
  </defs>
</svg>
