<svg xmlns="http://www.w3.org/2000/svg" width="375" height="308" fill="none" viewBox="0 0 375 308">
  <path fill="#fff" d="M40 42a2 2 0 0 1 2-2h291a2 2 0 0 1 2 2v224a2 2 0 0 1-2 2H42a2 2 0 0 1-2-2V42Z"/>
  <path fill="#fff" fill-opacity=".1" d="M42 41h291v-2H42v2Zm292 1v224h2V42h-2Zm-1 225H42v2h291v-2Zm-292-1V42h-2v224h2Zm1 1a1 1 0 0 1-1-1h-2a3 3 0 0 0 3 3v-2Zm292-1a1 1 0 0 1-1 1v2a3 3 0 0 0 3-3h-2Zm-1-225a1 1 0 0 1 1 1h2a3 3 0 0 0-3-3v2ZM42 39a3 3 0 0 0-3 3h2a1 1 0 0 1 1-1v-2Z"/>
  <g clip-path="url(#a)">
    <path fill="#0E121B" d="M134.336 163.615c-.567 0-.974-.123-1.219-.368-.245-.261-.368-.744-.368-1.449 0-.475.046-1.05.138-1.725.092-.675.253-1.694.483-3.059l.368-2.231c.215-1.319.406-2.699.575-4.14.153-1.227.23-2.147.23-2.76 0-.69-.253-1.035-.759-1.035-.383 0-.866.207-1.449.621-.567.399-1.181 1.043-1.84 1.932-.215.291-.452.437-.713.437-.215 0-.406-.1-.575-.299a1.201 1.201 0 0 1-.23-.713c0-.261.046-.506.138-.736.092-.245.261-.537.506-.874.751-1.027 1.587-1.817 2.507-2.369.92-.567 1.886-.851 2.898-.851.843 0 1.472.261 1.886.782.429.521.644 1.28.644 2.277 0 .889-.123 2.177-.368 3.864.767-2.269 1.74-3.987 2.921-5.152 1.181-1.181 2.568-1.771 4.163-1.771 1.257 0 2.2.36 2.829 1.081.644.705.966 1.656.966 2.852 0 .675-.1 1.495-.299 2.461l-1.403 6.578c-.153.767-.23 1.426-.23 1.978 0 .644.146 1.127.437 1.449.307.322.728.483 1.265.483.506 0 .997-.169 1.472-.506.491-.337 1.066-.897 1.725-1.679.184-.215.391-.322.621-.322.199 0 .353.092.46.276.123.184.184.437.184.759 0 .598-.146 1.073-.437 1.426-.797.966-1.587 1.671-2.369 2.116a4.903 4.903 0 0 1-2.461.667c-1.303 0-2.323-.383-3.059-1.15-.736-.782-1.104-1.825-1.104-3.128 0-.506.038-1.058.115-1.656.092-.598.238-1.357.437-2.277l.92-4.209.161-.736c.077-.353.138-.682.184-.989.046-.322.069-.636.069-.943 0-.491-.138-.882-.414-1.173-.276-.291-.667-.437-1.173-.437-.92 0-1.84.491-2.76 1.472-.92.981-1.771 2.568-2.553 4.761-.782 2.177-1.395 4.968-1.84 8.372-.107.782-.268 1.326-.483 1.633-.199.307-.598.46-1.196.46Zm27.365-7.176c.199 0 .353.1.46.299.107.199.161.452.161.759 0 .736-.222 1.173-.667 1.311-.92.322-1.932.506-3.036.552-.291 1.288-.866 2.323-1.725 3.105-.859.767-1.832 1.15-2.921 1.15-.92 0-1.71-.222-2.369-.667a4.267 4.267 0 0 1-1.472-1.771 5.676 5.676 0 0 1-.506-2.392c0-1.165.222-2.2.667-3.105.445-.92 1.058-1.633 1.84-2.139a4.587 4.587 0 0 1 2.599-.782c1.165 0 2.101.406 2.806 1.219.721.797 1.142 1.786 1.265 2.967.721-.046 1.579-.199 2.576-.46.123-.031.23-.046.322-.046Zm-7.544 4.738c.491 0 .912-.199 1.265-.598.368-.399.613-.974.736-1.725a3.272 3.272 0 0 1-1.104-1.265 3.845 3.845 0 0 1-.368-1.656c0-.245.023-.491.069-.736h-.115c-.613 0-1.127.299-1.541.897-.399.583-.598 1.411-.598 2.484 0 .843.161 1.487.483 1.932.337.445.728.667 1.173.667Zm16.573-2.806c.199 0 .353.092.46.276.123.184.184.437.184.759 0 .613-.146 1.089-.437 1.426a9.76 9.76 0 0 1-2.162 2.001c-.782.521-1.679.782-2.691.782-3.128 0-4.692-2.2-4.692-6.601 0-.675.023-1.357.069-2.047h-.897c-.46 0-.774-.084-.943-.253-.153-.169-.23-.437-.23-.805 0-.859.345-1.288 1.035-1.288h1.311c.261-1.687.659-3.228 1.196-4.623.537-1.395 1.181-2.507 1.932-3.335.767-.828 1.587-1.242 2.461-1.242.644 0 1.15.284 1.518.851.368.567.552 1.28.552 2.139 0 2.377-.997 4.447-2.99 6.21h2.576c.245 0 .422.054.529.161.107.107.161.307.161.598 0 1.058-.866 1.587-2.599 1.587h-2.806a47.125 47.125 0 0 0-.046 1.794c0 1.595.184 2.714.552 3.358.383.644.981.966 1.794.966.659 0 1.242-.199 1.748-.598.506-.399 1.104-.997 1.794-1.794.184-.215.391-.322.621-.322Zm-4.025-12.742c-.23 0-.491.291-.782.874-.276.567-.544 1.365-.805 2.392a33.818 33.818 0 0 0-.621 3.381c.905-.782 1.579-1.656 2.024-2.622.46-.981.69-1.871.69-2.668 0-.905-.169-1.357-.506-1.357Zm12.594 12.742c.2 0 .353.092.46.276.123.184.184.437.184.759 0 .613-.145 1.089-.437 1.426-.567.69-1.372 1.326-2.415 1.909a6.6 6.6 0 0 1-3.312.874c-1.61 0-2.859-.437-3.749-1.311-.889-.874-1.334-2.07-1.334-3.588 0-1.058.223-2.039.667-2.944.445-.92 1.058-1.648 1.84-2.185a4.71 4.71 0 0 1 2.691-.805c.89 0 1.603.268 2.139.805.537.521.805 1.234.805 2.139 0 1.058-.383 1.97-1.15 2.737-.751.751-2.031 1.349-3.841 1.794.384.705 1.112 1.058 2.185 1.058.69 0 1.472-.238 2.346-.713a7.887 7.887 0 0 0 2.3-1.909c.184-.215.391-.322.621-.322Zm-5.796-3.335c-.567 0-1.05.33-1.449.989-.383.659-.575 1.457-.575 2.392v.046c.905-.215 1.618-.537 2.139-.966.522-.429.782-.928.782-1.495 0-.291-.084-.521-.253-.69-.153-.184-.368-.276-.644-.276Zm22.876-1.472c.352 0 .605.077.759.23a.773.773 0 0 1 .253.598c0 .399-.123.751-.368 1.058-.23.307-.598.468-1.104.483-1.227.031-2.316-.061-3.266-.276-1.089 2.285-2.408 4.186-3.956 5.704-1.534 1.503-3.075 2.254-4.623 2.254-1.595 0-2.783-.928-3.565-2.783s-1.173-4.362-1.173-7.521c0-2.699.191-5.121.575-7.268.138-.797.329-1.334.575-1.61.26-.291.697-.437 1.311-.437 1.012 0 1.518.437 1.518 1.311 0 .092-.016.261-.046.506-.46 2.76-.69 5.259-.69 7.498 0 2.346.191 4.132.575 5.359.398 1.211.989 1.817 1.771 1.817.797 0 1.663-.552 2.599-1.656.935-1.104 1.794-2.492 2.576-4.163-.936-.583-1.641-1.334-2.116-2.254-.476-.935-.713-2.009-.713-3.22 0-1.211.184-2.231.552-3.059.383-.843.897-1.472 1.541-1.886a4.024 4.024 0 0 1 2.185-.621c.981 0 1.755.353 2.323 1.058.582.705.874 1.671.874 2.898 0 1.763-.384 3.688-1.15 5.773.812.138 1.74.207 2.783.207Zm-6.785-4.531c0 1.503.483 2.614 1.449 3.335.598-1.717.897-3.136.897-4.255 0-.644-.085-1.112-.253-1.403-.169-.307-.399-.46-.69-.46-.414 0-.752.245-1.012.736-.261.475-.391 1.158-.391 2.047Zm15.357 9.338c.199 0 .352.092.46.276.122.184.184.437.184.759 0 .613-.146 1.089-.437 1.426-.568.69-1.373 1.326-2.415 1.909a6.605 6.605 0 0 1-3.312.874c-1.61 0-2.86-.437-3.749-1.311-.89-.874-1.334-2.07-1.334-3.588a6.58 6.58 0 0 1 .667-2.944c.444-.92 1.058-1.648 1.84-2.185.797-.537 1.694-.805 2.691-.805.889 0 1.602.268 2.139.805.536.521.805 1.234.805 2.139 0 1.058-.384 1.97-1.15 2.737-.752.751-2.032 1.349-3.841 1.794.383.705 1.111 1.058 2.185 1.058.69 0 1.472-.238 2.346-.713a7.9 7.9 0 0 0 2.3-1.909c.184-.215.391-.322.621-.322Zm-5.796-3.335c-.568 0-1.051.33-1.449.989-.384.659-.575 1.457-.575 2.392v.046c.904-.215 1.617-.537 2.139-.966.521-.429.782-.928.782-1.495 0-.291-.085-.521-.253-.69-.154-.184-.368-.276-.644-.276Zm13.399.897c.337 0 .621.123.851.368.245.23.368.521.368.874 0 .199-.046.414-.138.644a3.884 3.884 0 0 1-1.035 1.426c-.445.383-.935.575-1.472.575-.429 0-.797-.153-1.104-.46-.291-.307-.437-.721-.437-1.242 0-.291.015-.606.046-.943.031-.245.046-.414.046-.506 0-.123-.031-.215-.092-.276a.219.219 0 0 0-.184-.092c-.215 0-.506.261-.874.782-.368.506-.736 1.181-1.104 2.024a16.521 16.521 0 0 0-.897 2.668c-.169.736-.36 1.227-.575 1.472-.215.245-.567.368-1.058.368-.583 0-.997-.307-1.242-.92-.23-.613-.345-1.595-.345-2.944 0-1.993.284-3.887.851-5.681.138-.445.36-.767.667-.966.322-.215.767-.322 1.334-.322.307 0 .521.038.644.115.123.077.184.222.184.437 0 .245-.115.797-.345 1.656a35.64 35.64 0 0 0-.368 1.61c-.092.46-.169 1.027-.23 1.702.506-1.319 1.073-2.392 1.702-3.22.629-.828 1.242-1.418 1.84-1.771.598-.353 1.142-.529 1.633-.529.445 0 .782.13 1.012.391.245.245.368.613.368 1.104 0 .291-.084.843-.253 1.656h.207Zm5.33 8.188c-.798 0-1.411-.184-1.84-.552-.414-.368-.621-.782-.621-1.242 0-.399.145-.744.437-1.035.291-.291.72-.437 1.288-.437.199 0 .429.023.69.069l.621.069a2.86 2.86 0 0 0-.276-1.127 4.91 4.91 0 0 0-.598-1.012 12.917 12.917 0 0 0-.69-.874c-.476.905-.951 1.656-1.426 2.254-.46.598-.966 1.165-1.518 1.702-.276.276-.568.414-.874.414a.768.768 0 0 1-.598-.253 1.004 1.004 0 0 1-.23-.667c0-.307.107-.59.322-.851l.299-.368c.843-1.043 1.479-1.901 1.909-2.576a25.4 25.4 0 0 0 .92-1.771c.352-.751.697-1.526 1.035-2.323.291-.675.897-1.012 1.817-1.012.429 0 .728.038.897.115.168.077.253.199.253.368 0 .092-.031.238-.092.437a3.397 3.397 0 0 1-.253.598c-.276.552-.414 1.02-.414 1.403 0 .23.076.483.23.759.168.276.421.621.759 1.035.49.644.858 1.196 1.104 1.656.26.445.391.935.391 1.472 0 .153-.016.368-.046.644.751-.291 1.633-1.066 2.645-2.323.184-.215.391-.322.621-.322.199 0 .352.092.46.276.122.184.184.437.184.759 0 .583-.146 1.058-.437 1.426-.767.951-1.503 1.602-2.208 1.955-.69.337-1.549.521-2.576.552-.614.521-1.342.782-2.185.782Zm13.311-5.06c.199 0 .353.092.46.276.123.184.184.437.184.759 0 .552-.13 1.027-.391 1.426a4.458 4.458 0 0 1-1.702 1.541c-.69.368-1.518.552-2.484.552-1.472 0-2.614-.437-3.427-1.311-.813-.889-1.219-2.085-1.219-3.588a6.58 6.58 0 0 1 .667-2.944c.445-.92 1.058-1.648 1.84-2.185.797-.537 1.694-.805 2.691-.805.889 0 1.602.268 2.139.805.537.521.805 1.234.805 2.139 0 1.058-.383 1.97-1.15 2.737-.751.751-2.039 1.349-3.864 1.794.368.705.989 1.058 1.863 1.058.629 0 1.142-.146 1.541-.437.414-.291.889-.782 1.426-1.472.184-.23.391-.345.621-.345Zm-3.772-4.025c-.567 0-1.05.33-1.449.989-.383.659-.575 1.457-.575 2.392v.046c.905-.215 1.618-.537 2.139-.966.521-.429.782-.928.782-1.495 0-.291-.084-.521-.253-.69-.153-.184-.368-.276-.644-.276Z"/>
  </g>
  <defs>
    <clipPath id="a">
      <path fill="#fff" d="M129 138h165v32H129z"/>
    </clipPath>
  </defs>
</svg>
